# xmcd CD database file
#
# Track frame offsets:
#	150
#	12836
#	34505
#	50079
#	61794
#	73251
#	91712
#	105694
#	125279
#	147142
#	160685
#
# Disc length: 2320 seconds
#
# Revision: 0
# Processed by: cddbd v1.4PL0 Copyright (c) Steve Scherf et al.
# Submitted via: CDex 1.40Release
#
DISCID=88090e0b
DTITLE=Reinaldo Garcia - Dogs of the Moon
DYEAR=2000
DGENRE=Country
TTITLE0=I Will Not Seek in People
TTITLE1=The Other Side of the Mirror
TTITLE2=My Barefoot Chicanita
TTITLE3=Let the Child Live, Lord
TTITLE4=Only You Can Hurt Me
TTITLE5=No Complaints
TTITLE6=The Whole Disaster
TTITLE7=Cowboy or Christian
TTITLE8=Haunted
TTITLE9=When the Wicked Prosper
TTITLE10=The Mirror of the Sea
EXTD=YEAR: 2000 ID3G: 2
EXTT0=
EXTT1=
EXTT2=
EXTT3=
EXTT4=
EXTT5=
EXTT6=
EXTT7=
EXTT8=
EXTT9=
EXTT10=
PLAYORDER=
